<mxfile host="app.diagrams.net" modified="2021-11-03T19:35:46.438Z" agent="5.0 (Macintosh; Intel Mac OS X 10_15_7) AppleWebKit/537.36 (KHTML, like Gecko) Chrome/94.0.4606.81 Safari/537.36 Edg/94.0.992.50" etag="Kktd3KHfnVZyIHODe12S" version="15.6.6" type="github" pages="4">
  <diagram id="50_rGVEiKm5uYiEjGBWM" name="Organization Creation">
    <mxGraphModel dx="1554" dy="891" grid="1" gridSize="10" guides="1" tooltips="1" connect="1" arrows="1" fold="1" page="1" pageScale="1" pageWidth="850" pageHeight="1100" math="0" shadow="0">
      <root>
        <mxCell id="0" />
        <mxCell id="1" parent="0" />
        <mxCell id="21Mqk3YyMTukPTeabXtq-32" value="" style="edgeStyle=orthogonalEdgeStyle;rounded=0;orthogonalLoop=1;jettySize=auto;html=1;" parent="1" source="21Mqk3YyMTukPTeabXtq-1" edge="1">
          <mxGeometry relative="1" as="geometry">
            <mxPoint x="430" y="290" as="targetPoint" />
          </mxGeometry>
        </mxCell>
        <mxCell id="21Mqk3YyMTukPTeabXtq-1" value="Request AD groups (4 - admin user prod and nonprod)" style="shape=process;whiteSpace=wrap;html=1;backgroundOutline=1;" parent="1" vertex="1">
          <mxGeometry x="370" y="180" width="120" height="60" as="geometry" />
        </mxCell>
        <mxCell id="21Mqk3YyMTukPTeabXtq-3" value="" style="edgeStyle=orthogonalEdgeStyle;rounded=0;orthogonalLoop=1;jettySize=auto;html=1;" parent="1" source="21Mqk3YyMTukPTeabXtq-2" target="21Mqk3YyMTukPTeabXtq-1" edge="1">
          <mxGeometry relative="1" as="geometry" />
        </mxCell>
        <mxCell id="21Mqk3YyMTukPTeabXtq-2" value="Onboarding Request submitted" style="ellipse;whiteSpace=wrap;html=1;rounded=1;strokeWidth=2;" parent="1" vertex="1">
          <mxGeometry x="370" y="50" width="120" height="80" as="geometry" />
        </mxCell>
        <mxCell id="21Mqk3YyMTukPTeabXtq-33" style="edgeStyle=orthogonalEdgeStyle;rounded=0;orthogonalLoop=1;jettySize=auto;html=1;exitX=0.5;exitY=1;exitDx=0;exitDy=0;" parent="1" source="21Mqk3YyMTukPTeabXtq-4" edge="1">
          <mxGeometry relative="1" as="geometry">
            <mxPoint x="430" y="400" as="targetPoint" />
          </mxGeometry>
        </mxCell>
        <mxCell id="21Mqk3YyMTukPTeabXtq-4" value="Go routine with delayed loop" style="shape=process;whiteSpace=wrap;html=1;backgroundOutline=1;rounded=1;strokeWidth=2;" parent="1" vertex="1">
          <mxGeometry x="370" y="290" width="120" height="60" as="geometry" />
        </mxCell>
        <mxCell id="21Mqk3YyMTukPTeabXtq-6" value="App routine" style="swimlane;horizontal=0;rounded=1;strokeWidth=2;html=1;" parent="1" vertex="1">
          <mxGeometry x="120" y="400" width="630" height="510" as="geometry" />
        </mxCell>
        <mxCell id="21Mqk3YyMTukPTeabXtq-26" value="" style="edgeStyle=orthogonalEdgeStyle;rounded=0;orthogonalLoop=1;jettySize=auto;html=1;" parent="21Mqk3YyMTukPTeabXtq-6" source="21Mqk3YyMTukPTeabXtq-7" target="21Mqk3YyMTukPTeabXtq-10" edge="1">
          <mxGeometry relative="1" as="geometry" />
        </mxCell>
        <mxCell id="21Mqk3YyMTukPTeabXtq-7" value="Delay 1 hour" style="strokeWidth=2;html=1;shape=mxgraph.flowchart.delay;whiteSpace=wrap;rounded=1;" parent="21Mqk3YyMTukPTeabXtq-6" vertex="1">
          <mxGeometry x="70" y="20" width="100" height="60" as="geometry" />
        </mxCell>
        <mxCell id="21Mqk3YyMTukPTeabXtq-27" value="" style="edgeStyle=orthogonalEdgeStyle;rounded=0;orthogonalLoop=1;jettySize=auto;html=1;" parent="21Mqk3YyMTukPTeabXtq-6" source="21Mqk3YyMTukPTeabXtq-10" target="21Mqk3YyMTukPTeabXtq-11" edge="1">
          <mxGeometry relative="1" as="geometry" />
        </mxCell>
        <mxCell id="21Mqk3YyMTukPTeabXtq-10" value="Scan AD with&amp;nbsp;&lt;br&gt;Axway_* filter" style="shape=process;whiteSpace=wrap;html=1;backgroundOutline=1;" parent="21Mqk3YyMTukPTeabXtq-6" vertex="1">
          <mxGeometry x="60" y="125" width="120" height="60" as="geometry" />
        </mxCell>
        <mxCell id="21Mqk3YyMTukPTeabXtq-28" value="" style="edgeStyle=orthogonalEdgeStyle;rounded=0;orthogonalLoop=1;jettySize=auto;html=1;" parent="21Mqk3YyMTukPTeabXtq-6" source="21Mqk3YyMTukPTeabXtq-11" target="21Mqk3YyMTukPTeabXtq-13" edge="1">
          <mxGeometry relative="1" as="geometry" />
        </mxCell>
        <mxCell id="21Mqk3YyMTukPTeabXtq-11" value="API Call to return groups" style="shape=process;whiteSpace=wrap;html=1;backgroundOutline=1;" parent="21Mqk3YyMTukPTeabXtq-6" vertex="1">
          <mxGeometry x="60" y="220" width="120" height="60" as="geometry" />
        </mxCell>
        <mxCell id="21Mqk3YyMTukPTeabXtq-12" value="Scan API list for name" style="shape=step;perimeter=stepPerimeter;whiteSpace=wrap;html=1;fixedSize=1;rounded=1;strokeWidth=2;" parent="21Mqk3YyMTukPTeabXtq-6" vertex="1">
          <mxGeometry x="72.5" y="400" width="95" height="60" as="geometry" />
        </mxCell>
        <mxCell id="21Mqk3YyMTukPTeabXtq-29" style="edgeStyle=orthogonalEdgeStyle;rounded=0;orthogonalLoop=1;jettySize=auto;html=1;exitX=0.5;exitY=1;exitDx=0;exitDy=0;entryX=0.5;entryY=0;entryDx=0;entryDy=0;" parent="21Mqk3YyMTukPTeabXtq-6" source="21Mqk3YyMTukPTeabXtq-13" target="21Mqk3YyMTukPTeabXtq-12" edge="1">
          <mxGeometry relative="1" as="geometry" />
        </mxCell>
        <mxCell id="21Mqk3YyMTukPTeabXtq-13" value="Iterate AD list+1" style="rounded=1;whiteSpace=wrap;html=1;strokeWidth=2;" parent="21Mqk3YyMTukPTeabXtq-6" vertex="1">
          <mxGeometry x="60" y="310" width="120" height="60" as="geometry" />
        </mxCell>
        <mxCell id="21Mqk3YyMTukPTeabXtq-17" style="edgeStyle=orthogonalEdgeStyle;rounded=0;orthogonalLoop=1;jettySize=auto;html=1;exitX=0.5;exitY=0;exitDx=0;exitDy=0;entryX=1;entryY=0.25;entryDx=0;entryDy=0;" parent="21Mqk3YyMTukPTeabXtq-6" source="21Mqk3YyMTukPTeabXtq-16" target="21Mqk3YyMTukPTeabXtq-13" edge="1">
          <mxGeometry relative="1" as="geometry" />
        </mxCell>
        <mxCell id="21Mqk3YyMTukPTeabXtq-24" value="" style="edgeStyle=orthogonalEdgeStyle;rounded=0;orthogonalLoop=1;jettySize=auto;html=1;" parent="21Mqk3YyMTukPTeabXtq-6" source="21Mqk3YyMTukPTeabXtq-16" target="21Mqk3YyMTukPTeabXtq-20" edge="1">
          <mxGeometry relative="1" as="geometry" />
        </mxCell>
        <mxCell id="21Mqk3YyMTukPTeabXtq-16" value="Present" style="rhombus;whiteSpace=wrap;html=1;rounded=1;strokeWidth=2;" parent="21Mqk3YyMTukPTeabXtq-6" vertex="1">
          <mxGeometry x="190" y="390" width="80" height="80" as="geometry" />
        </mxCell>
        <mxCell id="21Mqk3YyMTukPTeabXtq-23" style="edgeStyle=orthogonalEdgeStyle;rounded=0;orthogonalLoop=1;jettySize=auto;html=1;exitX=1;exitY=0.5;exitDx=0;exitDy=0;entryX=1;entryY=0.25;entryDx=0;entryDy=0;" parent="21Mqk3YyMTukPTeabXtq-6" source="21Mqk3YyMTukPTeabXtq-20" target="21Mqk3YyMTukPTeabXtq-13" edge="1">
          <mxGeometry relative="1" as="geometry" />
        </mxCell>
        <mxCell id="21Mqk3YyMTukPTeabXtq-20" value="API Call to add groups" style="shape=process;whiteSpace=wrap;html=1;backgroundOutline=1;" parent="21Mqk3YyMTukPTeabXtq-6" vertex="1">
          <mxGeometry x="310" y="400" width="120" height="60" as="geometry" />
        </mxCell>
        <mxCell id="21Mqk3YyMTukPTeabXtq-18" value="Yes" style="text;html=1;align=center;verticalAlign=middle;resizable=0;points=[];autosize=1;strokeColor=none;fillColor=none;" parent="21Mqk3YyMTukPTeabXtq-6" vertex="1">
          <mxGeometry x="200" y="330" width="40" height="20" as="geometry" />
        </mxCell>
        <mxCell id="21Mqk3YyMTukPTeabXtq-30" value="" style="edgeStyle=orthogonalEdgeStyle;rounded=0;orthogonalLoop=1;jettySize=auto;html=1;" parent="1" source="21Mqk3YyMTukPTeabXtq-12" edge="1">
          <mxGeometry relative="1" as="geometry">
            <mxPoint x="310" y="830" as="targetPoint" />
          </mxGeometry>
        </mxCell>
        <mxCell id="21Mqk3YyMTukPTeabXtq-31" value="No" style="text;html=1;align=center;verticalAlign=middle;resizable=0;points=[];autosize=1;strokeColor=none;fillColor=none;" parent="1" vertex="1">
          <mxGeometry x="385" y="820" width="30" height="20" as="geometry" />
        </mxCell>
        <mxCell id="KgGrY6MAEdmXZvfeVLUI-1" value="Service Now" style="text;html=1;align=center;verticalAlign=middle;resizable=0;points=[];autosize=1;strokeColor=none;fillColor=none;fontColor=default;" vertex="1" parent="1">
          <mxGeometry x="490" y="190" width="80" height="20" as="geometry" />
        </mxCell>
      </root>
    </mxGraphModel>
  </diagram>
  <diagram id="hMRxXClyPCfuDPw358Ve" name="Producer Creation">
    <mxGraphModel dx="1554" dy="891" grid="1" gridSize="10" guides="1" tooltips="1" connect="1" arrows="1" fold="1" page="1" pageScale="1" pageWidth="850" pageHeight="1100" math="0" shadow="0">
      <root>
        <mxCell id="Siz-k5vaXNlsbOJ8AOXz-0" />
        <mxCell id="Siz-k5vaXNlsbOJ8AOXz-1" parent="Siz-k5vaXNlsbOJ8AOXz-0" />
        <mxCell id="y9OW2W21cJCbiljsD_78-0" value="" style="edgeStyle=orthogonalEdgeStyle;rounded=0;orthogonalLoop=1;jettySize=auto;html=1;exitX=0.5;exitY=1;exitDx=0;exitDy=0;" parent="Siz-k5vaXNlsbOJ8AOXz-1" source="XJeDLQ6f7k1wUauOPT4I-9" target="Siz-k5vaXNlsbOJ8AOXz-5" edge="1">
          <mxGeometry relative="1" as="geometry">
            <Array as="points">
              <mxPoint x="450" y="200" />
              <mxPoint x="450" y="200" />
            </Array>
          </mxGeometry>
        </mxCell>
        <mxCell id="XJeDLQ6f7k1wUauOPT4I-10" value="" style="edgeStyle=orthogonalEdgeStyle;rounded=0;orthogonalLoop=1;jettySize=auto;html=1;" parent="Siz-k5vaXNlsbOJ8AOXz-1" source="Siz-k5vaXNlsbOJ8AOXz-2" target="XJeDLQ6f7k1wUauOPT4I-9" edge="1">
          <mxGeometry relative="1" as="geometry" />
        </mxCell>
        <mxCell id="Siz-k5vaXNlsbOJ8AOXz-2" value="Meet with team" style="ellipse;whiteSpace=wrap;html=1;" parent="Siz-k5vaXNlsbOJ8AOXz-1" vertex="1">
          <mxGeometry x="260" y="100" width="120" height="80" as="geometry" />
        </mxCell>
        <mxCell id="Siz-k5vaXNlsbOJ8AOXz-17" value="" style="edgeStyle=orthogonalEdgeStyle;rounded=0;orthogonalLoop=1;jettySize=auto;html=1;" parent="Siz-k5vaXNlsbOJ8AOXz-1" source="Siz-k5vaXNlsbOJ8AOXz-5" target="Siz-k5vaXNlsbOJ8AOXz-8" edge="1">
          <mxGeometry relative="1" as="geometry" />
        </mxCell>
        <mxCell id="Siz-k5vaXNlsbOJ8AOXz-5" value="&lt;font style=&quot;font-size: 10px&quot;&gt;Move APIs to org&lt;/font&gt;" style="html=1;strokeWidth=2;shape=manualInput;whiteSpace=wrap;rounded=1;size=26;arcSize=11;" parent="Siz-k5vaXNlsbOJ8AOXz-1" vertex="1">
          <mxGeometry x="360" y="260" width="130" height="80" as="geometry" />
        </mxCell>
        <mxCell id="Siz-k5vaXNlsbOJ8AOXz-18" value="" style="edgeStyle=orthogonalEdgeStyle;rounded=0;orthogonalLoop=1;jettySize=auto;html=1;" parent="Siz-k5vaXNlsbOJ8AOXz-1" source="Siz-k5vaXNlsbOJ8AOXz-8" target="Siz-k5vaXNlsbOJ8AOXz-9" edge="1">
          <mxGeometry relative="1" as="geometry" />
        </mxCell>
        <mxCell id="Siz-k5vaXNlsbOJ8AOXz-8" value="&lt;font style=&quot;font-size: 10px&quot;&gt;Rename Provider app&lt;br&gt;(Provider_&amp;lt;org_app&amp;gt;_deprecated)&lt;br&gt;&lt;/font&gt;" style="html=1;strokeWidth=2;shape=manualInput;whiteSpace=wrap;rounded=1;size=26;arcSize=11;" parent="Siz-k5vaXNlsbOJ8AOXz-1" vertex="1">
          <mxGeometry x="355" y="370" width="130" height="80" as="geometry" />
        </mxCell>
        <mxCell id="Siz-k5vaXNlsbOJ8AOXz-19" value="" style="edgeStyle=orthogonalEdgeStyle;rounded=0;orthogonalLoop=1;jettySize=auto;html=1;" parent="Siz-k5vaXNlsbOJ8AOXz-1" source="Siz-k5vaXNlsbOJ8AOXz-9" target="Siz-k5vaXNlsbOJ8AOXz-12" edge="1">
          <mxGeometry relative="1" as="geometry" />
        </mxCell>
        <mxCell id="Siz-k5vaXNlsbOJ8AOXz-24" style="edgeStyle=orthogonalEdgeStyle;rounded=0;orthogonalLoop=1;jettySize=auto;html=1;entryX=0.5;entryY=0;entryDx=0;entryDy=0;" parent="Siz-k5vaXNlsbOJ8AOXz-1" source="Siz-k5vaXNlsbOJ8AOXz-9" target="Siz-k5vaXNlsbOJ8AOXz-14" edge="1">
          <mxGeometry relative="1" as="geometry">
            <mxPoint x="425" y="610" as="targetPoint" />
          </mxGeometry>
        </mxCell>
        <mxCell id="Siz-k5vaXNlsbOJ8AOXz-9" value="Team knows who owns API keys?&lt;br&gt;" style="strokeWidth=2;html=1;shape=mxgraph.flowchart.decision;whiteSpace=wrap;rounded=1;" parent="Siz-k5vaXNlsbOJ8AOXz-1" vertex="1">
          <mxGeometry x="375" y="480" width="100" height="100" as="geometry" />
        </mxCell>
        <mxCell id="Siz-k5vaXNlsbOJ8AOXz-21" value="" style="edgeStyle=orthogonalEdgeStyle;rounded=0;orthogonalLoop=1;jettySize=auto;html=1;" parent="Siz-k5vaXNlsbOJ8AOXz-1" source="Siz-k5vaXNlsbOJ8AOXz-11" target="Siz-k5vaXNlsbOJ8AOXz-13" edge="1">
          <mxGeometry relative="1" as="geometry" />
        </mxCell>
        <mxCell id="Siz-k5vaXNlsbOJ8AOXz-11" value="Create Application" style="verticalLabelPosition=bottom;verticalAlign=top;html=1;shape=offPageConnector;rounded=0;size=0.5;strokeWidth=2;" parent="Siz-k5vaXNlsbOJ8AOXz-1" vertex="1">
          <mxGeometry x="690" y="500" width="60" height="60" as="geometry" />
        </mxCell>
        <mxCell id="Siz-k5vaXNlsbOJ8AOXz-20" value="" style="edgeStyle=orthogonalEdgeStyle;rounded=0;orthogonalLoop=1;jettySize=auto;html=1;" parent="Siz-k5vaXNlsbOJ8AOXz-1" source="Siz-k5vaXNlsbOJ8AOXz-12" target="Siz-k5vaXNlsbOJ8AOXz-11" edge="1">
          <mxGeometry relative="1" as="geometry" />
        </mxCell>
        <mxCell id="Siz-k5vaXNlsbOJ8AOXz-12" value="Get key from&lt;br&gt;&lt;span style=&quot;font-size: 10px&quot;&gt;(Provider_&amp;lt;org_app&amp;gt;_deprecated)&lt;/span&gt;" style="rounded=1;whiteSpace=wrap;html=1;absoluteArcSize=1;arcSize=14;strokeWidth=2;" parent="Siz-k5vaXNlsbOJ8AOXz-1" vertex="1">
          <mxGeometry x="530" y="480" width="100" height="100" as="geometry" />
        </mxCell>
        <mxCell id="Siz-k5vaXNlsbOJ8AOXz-22" style="edgeStyle=orthogonalEdgeStyle;rounded=0;orthogonalLoop=1;jettySize=auto;html=1;exitX=0;exitY=0.5;exitDx=0;exitDy=0;exitPerimeter=0;entryX=0.5;entryY=1;entryDx=0;entryDy=0;" parent="Siz-k5vaXNlsbOJ8AOXz-1" source="Siz-k5vaXNlsbOJ8AOXz-13" target="Siz-k5vaXNlsbOJ8AOXz-12" edge="1">
          <mxGeometry relative="1" as="geometry" />
        </mxCell>
        <mxCell id="Siz-k5vaXNlsbOJ8AOXz-23" style="edgeStyle=orthogonalEdgeStyle;rounded=0;orthogonalLoop=1;jettySize=auto;html=1;exitX=0.5;exitY=1;exitDx=0;exitDy=0;exitPerimeter=0;" parent="Siz-k5vaXNlsbOJ8AOXz-1" source="Siz-k5vaXNlsbOJ8AOXz-13" target="Siz-k5vaXNlsbOJ8AOXz-14" edge="1">
          <mxGeometry relative="1" as="geometry" />
        </mxCell>
        <mxCell id="Siz-k5vaXNlsbOJ8AOXz-13" value="More Keys" style="strokeWidth=2;html=1;shape=mxgraph.flowchart.decision;whiteSpace=wrap;rounded=1;" parent="Siz-k5vaXNlsbOJ8AOXz-1" vertex="1">
          <mxGeometry x="670" y="620" width="100" height="100" as="geometry" />
        </mxCell>
        <mxCell id="Siz-k5vaXNlsbOJ8AOXz-14" value="Onboard Complete" style="ellipse;whiteSpace=wrap;html=1;rounded=1;strokeWidth=2;" parent="Siz-k5vaXNlsbOJ8AOXz-1" vertex="1">
          <mxGeometry x="365" y="720" width="120" height="80" as="geometry" />
        </mxCell>
        <mxCell id="Siz-k5vaXNlsbOJ8AOXz-25" value="No" style="text;html=1;align=center;verticalAlign=middle;resizable=0;points=[];autosize=1;strokeColor=none;fillColor=none;" parent="Siz-k5vaXNlsbOJ8AOXz-1" vertex="1">
          <mxGeometry x="425" y="640" width="30" height="20" as="geometry" />
        </mxCell>
        <mxCell id="Siz-k5vaXNlsbOJ8AOXz-26" value="Yes" style="text;html=1;align=center;verticalAlign=middle;resizable=0;points=[];autosize=1;strokeColor=none;fillColor=none;" parent="Siz-k5vaXNlsbOJ8AOXz-1" vertex="1">
          <mxGeometry x="470" y="510" width="40" height="20" as="geometry" />
        </mxCell>
        <mxCell id="Siz-k5vaXNlsbOJ8AOXz-27" value="Yes" style="text;html=1;align=center;verticalAlign=middle;resizable=0;points=[];autosize=1;strokeColor=none;fillColor=none;" parent="Siz-k5vaXNlsbOJ8AOXz-1" vertex="1">
          <mxGeometry x="610" y="650" width="40" height="20" as="geometry" />
        </mxCell>
        <mxCell id="Siz-k5vaXNlsbOJ8AOXz-28" value="No" style="text;html=1;align=center;verticalAlign=middle;resizable=0;points=[];autosize=1;strokeColor=none;fillColor=none;" parent="Siz-k5vaXNlsbOJ8AOXz-1" vertex="1">
          <mxGeometry x="595" y="740" width="30" height="20" as="geometry" />
        </mxCell>
        <mxCell id="XJeDLQ6f7k1wUauOPT4I-1" value="" style="edgeStyle=orthogonalEdgeStyle;rounded=0;orthogonalLoop=1;jettySize=auto;html=1;" parent="Siz-k5vaXNlsbOJ8AOXz-1" target="XJeDLQ6f7k1wUauOPT4I-6" edge="1">
          <mxGeometry relative="1" as="geometry">
            <mxPoint x="465" y="140" as="sourcePoint" />
          </mxGeometry>
        </mxCell>
        <mxCell id="XJeDLQ6f7k1wUauOPT4I-2" value="No" style="edgeLabel;html=1;align=center;verticalAlign=middle;resizable=0;points=[];" parent="XJeDLQ6f7k1wUauOPT4I-1" vertex="1" connectable="0">
          <mxGeometry x="-0.3" y="4" relative="1" as="geometry">
            <mxPoint as="offset" />
          </mxGeometry>
        </mxCell>
        <mxCell id="XJeDLQ6f7k1wUauOPT4I-8" value="" style="edgeStyle=orthogonalEdgeStyle;rounded=0;orthogonalLoop=1;jettySize=auto;html=1;exitX=1;exitY=0.5;exitDx=0;exitDy=0;" parent="Siz-k5vaXNlsbOJ8AOXz-1" source="XJeDLQ6f7k1wUauOPT4I-9" edge="1">
          <mxGeometry relative="1" as="geometry">
            <mxPoint x="465" y="140" as="sourcePoint" />
            <mxPoint x="530" y="140" as="targetPoint" />
          </mxGeometry>
        </mxCell>
        <mxCell id="XJeDLQ6f7k1wUauOPT4I-4" style="edgeStyle=orthogonalEdgeStyle;rounded=0;orthogonalLoop=1;jettySize=auto;html=1;exitX=0.5;exitY=1;exitDx=0;exitDy=0;entryX=1;entryY=0.5;entryDx=0;entryDy=0;" parent="Siz-k5vaXNlsbOJ8AOXz-1" source="XJeDLQ6f7k1wUauOPT4I-5" edge="1">
          <mxGeometry relative="1" as="geometry">
            <mxPoint x="465" y="260" as="targetPoint" />
          </mxGeometry>
        </mxCell>
        <mxCell id="XJeDLQ6f7k1wUauOPT4I-5" value="" style="verticalLabelPosition=bottom;verticalAlign=top;html=1;shape=offPageConnector;rounded=0;size=0.5;strokeWidth=2;" parent="Siz-k5vaXNlsbOJ8AOXz-1" vertex="1">
          <mxGeometry x="535" y="100" width="100" height="90" as="geometry" />
        </mxCell>
        <mxCell id="XJeDLQ6f7k1wUauOPT4I-6" value="Organization &lt;br&gt;Creation&amp;nbsp;" style="text;html=1;align=center;verticalAlign=middle;resizable=0;points=[];autosize=1;strokeColor=none;fillColor=none;" parent="Siz-k5vaXNlsbOJ8AOXz-1" vertex="1">
          <mxGeometry x="545" y="125" width="80" height="30" as="geometry" />
        </mxCell>
        <mxCell id="XJeDLQ6f7k1wUauOPT4I-7" value="Yes" style="text;html=1;align=center;verticalAlign=middle;resizable=0;points=[];autosize=1;strokeColor=none;fillColor=none;" parent="Siz-k5vaXNlsbOJ8AOXz-1" vertex="1">
          <mxGeometry x="445" y="180" width="40" height="20" as="geometry" />
        </mxCell>
        <mxCell id="XJeDLQ6f7k1wUauOPT4I-9" value="Org Exist" style="rhombus;whiteSpace=wrap;html=1;rounded=1;strokeWidth=2;" parent="Siz-k5vaXNlsbOJ8AOXz-1" vertex="1">
          <mxGeometry x="410" y="100" width="80" height="80" as="geometry" />
        </mxCell>
        <mxCell id="T0Aa_vQuMEQslVSk-Fus-0" value="&lt;font style=&quot;font-size: 10px&quot;&gt;Gather Topology info to outline&lt;/font&gt;" style="html=1;strokeWidth=2;shape=manualInput;whiteSpace=wrap;rounded=1;size=26;arcSize=11;" parent="Siz-k5vaXNlsbOJ8AOXz-1" vertex="1">
          <mxGeometry x="510" y="260" width="130" height="80" as="geometry" />
        </mxCell>
      </root>
    </mxGraphModel>
  </diagram>
  <diagram id="xNeBG88j72INWJbGPh9E" name="Create Application">
    <mxGraphModel dx="1103" dy="1099" grid="1" gridSize="10" guides="1" tooltips="1" connect="1" arrows="1" fold="1" page="1" pageScale="1" pageWidth="850" pageHeight="1100" math="0" shadow="0">
      <root>
        <mxCell id="QUhffus9YfwAbC_pS_Uo-0" />
        <mxCell id="QUhffus9YfwAbC_pS_Uo-1" parent="QUhffus9YfwAbC_pS_Uo-0" />
        <mxCell id="FXSgPhm4-Gb5gIgtQys_-6" value="" style="edgeStyle=orthogonalEdgeStyle;rounded=0;orthogonalLoop=1;jettySize=auto;html=1;" edge="1" parent="QUhffus9YfwAbC_pS_Uo-1" source="QUhffus9YfwAbC_pS_Uo-2" target="QUhffus9YfwAbC_pS_Uo-7">
          <mxGeometry relative="1" as="geometry" />
        </mxCell>
        <mxCell id="FXSgPhm4-Gb5gIgtQys_-11" value="" style="edgeStyle=orthogonalEdgeStyle;rounded=0;orthogonalLoop=1;jettySize=auto;html=1;" edge="1" parent="QUhffus9YfwAbC_pS_Uo-1" source="QUhffus9YfwAbC_pS_Uo-2" target="QUhffus9YfwAbC_pS_Uo-4">
          <mxGeometry relative="1" as="geometry" />
        </mxCell>
        <mxCell id="FXSgPhm4-Gb5gIgtQys_-14" value="No" style="edgeLabel;html=1;align=center;verticalAlign=middle;resizable=0;points=[];" vertex="1" connectable="0" parent="FXSgPhm4-Gb5gIgtQys_-11">
          <mxGeometry x="-0.3" y="4" relative="1" as="geometry">
            <mxPoint as="offset" />
          </mxGeometry>
        </mxCell>
        <mxCell id="QUhffus9YfwAbC_pS_Uo-2" value="Organization Exist?" style="ellipse;whiteSpace=wrap;html=1;rounded=1;strokeWidth=2;" vertex="1" parent="QUhffus9YfwAbC_pS_Uo-1">
          <mxGeometry x="50" y="40" width="120" height="80" as="geometry" />
        </mxCell>
        <mxCell id="FXSgPhm4-Gb5gIgtQys_-12" style="edgeStyle=orthogonalEdgeStyle;rounded=0;orthogonalLoop=1;jettySize=auto;html=1;exitX=0.5;exitY=1;exitDx=0;exitDy=0;entryX=1;entryY=0.5;entryDx=0;entryDy=0;" edge="1" parent="QUhffus9YfwAbC_pS_Uo-1" source="QUhffus9YfwAbC_pS_Uo-3" target="QUhffus9YfwAbC_pS_Uo-7">
          <mxGeometry relative="1" as="geometry" />
        </mxCell>
        <mxCell id="QUhffus9YfwAbC_pS_Uo-3" value="" style="verticalLabelPosition=bottom;verticalAlign=top;html=1;shape=offPageConnector;rounded=0;size=0.5;strokeWidth=2;" vertex="1" parent="QUhffus9YfwAbC_pS_Uo-1">
          <mxGeometry x="240" y="40" width="100" height="90" as="geometry" />
        </mxCell>
        <mxCell id="QUhffus9YfwAbC_pS_Uo-4" value="Organization &lt;br&gt;Creation&amp;nbsp;" style="text;html=1;align=center;verticalAlign=middle;resizable=0;points=[];autosize=1;strokeColor=none;fillColor=none;" vertex="1" parent="QUhffus9YfwAbC_pS_Uo-1">
          <mxGeometry x="250" y="65" width="80" height="30" as="geometry" />
        </mxCell>
        <mxCell id="FXSgPhm4-Gb5gIgtQys_-7" value="" style="edgeStyle=orthogonalEdgeStyle;rounded=0;orthogonalLoop=1;jettySize=auto;html=1;" edge="1" parent="QUhffus9YfwAbC_pS_Uo-1" source="QUhffus9YfwAbC_pS_Uo-7" target="FXSgPhm4-Gb5gIgtQys_-2">
          <mxGeometry relative="1" as="geometry" />
        </mxCell>
        <mxCell id="QUhffus9YfwAbC_pS_Uo-7" value="API Call to create App" style="shape=process;whiteSpace=wrap;html=1;backgroundOutline=1;rounded=1;strokeWidth=2;" vertex="1" parent="QUhffus9YfwAbC_pS_Uo-1">
          <mxGeometry x="50" y="170" width="120" height="60" as="geometry" />
        </mxCell>
        <mxCell id="FXSgPhm4-Gb5gIgtQys_-9" value="" style="edgeStyle=orthogonalEdgeStyle;rounded=0;orthogonalLoop=1;jettySize=auto;html=1;" edge="1" parent="QUhffus9YfwAbC_pS_Uo-1" source="FXSgPhm4-Gb5gIgtQys_-1" target="FXSgPhm4-Gb5gIgtQys_-4">
          <mxGeometry relative="1" as="geometry" />
        </mxCell>
        <mxCell id="FXSgPhm4-Gb5gIgtQys_-1" value="API Call to create apikey in Consumer app" style="shape=process;whiteSpace=wrap;html=1;backgroundOutline=1;rounded=1;strokeWidth=2;" vertex="1" parent="QUhffus9YfwAbC_pS_Uo-1">
          <mxGeometry x="50" y="360" width="120" height="60" as="geometry" />
        </mxCell>
        <mxCell id="FXSgPhm4-Gb5gIgtQys_-8" value="" style="edgeStyle=orthogonalEdgeStyle;rounded=0;orthogonalLoop=1;jettySize=auto;html=1;" edge="1" parent="QUhffus9YfwAbC_pS_Uo-1" source="FXSgPhm4-Gb5gIgtQys_-2" target="FXSgPhm4-Gb5gIgtQys_-1">
          <mxGeometry relative="1" as="geometry" />
        </mxCell>
        <mxCell id="FXSgPhm4-Gb5gIgtQys_-2" value="API Call to delete apikey in Producer App" style="shape=process;whiteSpace=wrap;html=1;backgroundOutline=1;rounded=1;strokeWidth=2;" vertex="1" parent="QUhffus9YfwAbC_pS_Uo-1">
          <mxGeometry x="50" y="270" width="120" height="60" as="geometry" />
        </mxCell>
        <mxCell id="FXSgPhm4-Gb5gIgtQys_-10" value="" style="edgeStyle=orthogonalEdgeStyle;rounded=0;orthogonalLoop=1;jettySize=auto;html=1;" edge="1" parent="QUhffus9YfwAbC_pS_Uo-1" source="FXSgPhm4-Gb5gIgtQys_-4" target="FXSgPhm4-Gb5gIgtQys_-5">
          <mxGeometry relative="1" as="geometry" />
        </mxCell>
        <mxCell id="FXSgPhm4-Gb5gIgtQys_-4" value="Scan Prod App for all apis&amp;nbsp;" style="rounded=1;whiteSpace=wrap;html=1;strokeWidth=2;" vertex="1" parent="QUhffus9YfwAbC_pS_Uo-1">
          <mxGeometry x="50" y="470" width="120" height="60" as="geometry" />
        </mxCell>
        <mxCell id="FXSgPhm4-Gb5gIgtQys_-5" value="Add each API to Consumer app" style="shape=process;whiteSpace=wrap;html=1;backgroundOutline=1;rounded=1;strokeWidth=2;" vertex="1" parent="QUhffus9YfwAbC_pS_Uo-1">
          <mxGeometry x="50" y="580" width="120" height="60" as="geometry" />
        </mxCell>
        <mxCell id="FXSgPhm4-Gb5gIgtQys_-13" value="Yes" style="text;html=1;align=center;verticalAlign=middle;resizable=0;points=[];autosize=1;strokeColor=none;fillColor=none;" vertex="1" parent="QUhffus9YfwAbC_pS_Uo-1">
          <mxGeometry x="100" y="130" width="40" height="20" as="geometry" />
        </mxCell>
        <mxCell id="4ai3RzKEzDJzO9Erc1_7-0" value="Check if App exists" style="rounded=0;whiteSpace=wrap;html=1;strokeWidth=2;" vertex="1" parent="QUhffus9YfwAbC_pS_Uo-1">
          <mxGeometry x="425" y="220" width="120" height="60" as="geometry" />
        </mxCell>
      </root>
    </mxGraphModel>
  </diagram>
  <diagram id="aCm4BEtJBxlDYD8r_7eZ" name="Consumer Creation">
    <mxGraphModel dx="2066" dy="1066" grid="1" gridSize="10" guides="1" tooltips="1" connect="1" arrows="1" fold="1" page="1" pageScale="1" pageWidth="850" pageHeight="1100" math="0" shadow="0">
      <root>
        <mxCell id="6tACQDfN3VSRMyzd7dVN-0" />
        <mxCell id="6tACQDfN3VSRMyzd7dVN-1" parent="6tACQDfN3VSRMyzd7dVN-0" />
        <mxCell id="6SWaG86HB-1225bSY7io-0" value="Meet with team" style="ellipse;whiteSpace=wrap;html=1;" vertex="1" parent="6tACQDfN3VSRMyzd7dVN-1">
          <mxGeometry x="110" y="100" width="120" height="80" as="geometry" />
        </mxCell>
        <mxCell id="acLjO2szlm8cahWI-6Uu-0" value="" style="edgeStyle=orthogonalEdgeStyle;rounded=0;orthogonalLoop=1;jettySize=auto;html=1;exitX=0.5;exitY=1;exitDx=0;exitDy=0;" edge="1" parent="6tACQDfN3VSRMyzd7dVN-1" source="acLjO2szlm8cahWI-6Uu-10" target="acLjO2szlm8cahWI-6Uu-2">
          <mxGeometry relative="1" as="geometry">
            <Array as="points">
              <mxPoint x="300" y="200" />
              <mxPoint x="300" y="200" />
            </Array>
          </mxGeometry>
        </mxCell>
        <mxCell id="acLjO2szlm8cahWI-6Uu-1" value="" style="edgeStyle=orthogonalEdgeStyle;rounded=0;orthogonalLoop=1;jettySize=auto;html=1;" edge="1" parent="6tACQDfN3VSRMyzd7dVN-1" target="acLjO2szlm8cahWI-6Uu-10">
          <mxGeometry relative="1" as="geometry">
            <mxPoint x="230" y="140" as="sourcePoint" />
          </mxGeometry>
        </mxCell>
        <mxCell id="dN7AVTIH89Ig2Ot_esda-4" value="" style="edgeStyle=orthogonalEdgeStyle;rounded=0;orthogonalLoop=1;jettySize=auto;html=1;" edge="1" parent="6tACQDfN3VSRMyzd7dVN-1" source="acLjO2szlm8cahWI-6Uu-2" target="dN7AVTIH89Ig2Ot_esda-0">
          <mxGeometry relative="1" as="geometry" />
        </mxCell>
        <mxCell id="acLjO2szlm8cahWI-6Uu-2" value="&lt;font style=&quot;font-size: 10px&quot;&gt;Gather List of Applications&lt;/font&gt;" style="html=1;strokeWidth=2;shape=manualInput;whiteSpace=wrap;rounded=1;size=26;arcSize=11;" vertex="1" parent="6tACQDfN3VSRMyzd7dVN-1">
          <mxGeometry x="210" y="260" width="130" height="80" as="geometry" />
        </mxCell>
        <mxCell id="acLjO2szlm8cahWI-6Uu-3" value="" style="edgeStyle=orthogonalEdgeStyle;rounded=0;orthogonalLoop=1;jettySize=auto;html=1;" edge="1" parent="6tACQDfN3VSRMyzd7dVN-1" target="acLjO2szlm8cahWI-6Uu-8">
          <mxGeometry relative="1" as="geometry">
            <mxPoint x="315" y="140" as="sourcePoint" />
          </mxGeometry>
        </mxCell>
        <mxCell id="acLjO2szlm8cahWI-6Uu-4" value="No" style="edgeLabel;html=1;align=center;verticalAlign=middle;resizable=0;points=[];" vertex="1" connectable="0" parent="acLjO2szlm8cahWI-6Uu-3">
          <mxGeometry x="-0.3" y="4" relative="1" as="geometry">
            <mxPoint as="offset" />
          </mxGeometry>
        </mxCell>
        <mxCell id="acLjO2szlm8cahWI-6Uu-5" value="" style="edgeStyle=orthogonalEdgeStyle;rounded=0;orthogonalLoop=1;jettySize=auto;html=1;exitX=1;exitY=0.5;exitDx=0;exitDy=0;" edge="1" parent="6tACQDfN3VSRMyzd7dVN-1" source="acLjO2szlm8cahWI-6Uu-10">
          <mxGeometry relative="1" as="geometry">
            <mxPoint x="315" y="140" as="sourcePoint" />
            <mxPoint x="380" y="140" as="targetPoint" />
          </mxGeometry>
        </mxCell>
        <mxCell id="acLjO2szlm8cahWI-6Uu-6" style="edgeStyle=orthogonalEdgeStyle;rounded=0;orthogonalLoop=1;jettySize=auto;html=1;exitX=0.5;exitY=1;exitDx=0;exitDy=0;entryX=1;entryY=0.5;entryDx=0;entryDy=0;" edge="1" parent="6tACQDfN3VSRMyzd7dVN-1" source="acLjO2szlm8cahWI-6Uu-7">
          <mxGeometry relative="1" as="geometry">
            <mxPoint x="315" y="260" as="targetPoint" />
          </mxGeometry>
        </mxCell>
        <mxCell id="acLjO2szlm8cahWI-6Uu-7" value="" style="verticalLabelPosition=bottom;verticalAlign=top;html=1;shape=offPageConnector;rounded=0;size=0.5;strokeWidth=2;" vertex="1" parent="6tACQDfN3VSRMyzd7dVN-1">
          <mxGeometry x="385" y="100" width="100" height="90" as="geometry" />
        </mxCell>
        <mxCell id="acLjO2szlm8cahWI-6Uu-8" value="Organization &lt;br&gt;Creation&amp;nbsp;" style="text;html=1;align=center;verticalAlign=middle;resizable=0;points=[];autosize=1;strokeColor=none;fillColor=none;" vertex="1" parent="6tACQDfN3VSRMyzd7dVN-1">
          <mxGeometry x="395" y="125" width="80" height="30" as="geometry" />
        </mxCell>
        <mxCell id="acLjO2szlm8cahWI-6Uu-9" value="Yes" style="text;html=1;align=center;verticalAlign=middle;resizable=0;points=[];autosize=1;strokeColor=none;fillColor=none;" vertex="1" parent="6tACQDfN3VSRMyzd7dVN-1">
          <mxGeometry x="295" y="180" width="40" height="20" as="geometry" />
        </mxCell>
        <mxCell id="acLjO2szlm8cahWI-6Uu-10" value="Org Exist" style="rhombus;whiteSpace=wrap;html=1;rounded=1;strokeWidth=2;" vertex="1" parent="6tACQDfN3VSRMyzd7dVN-1">
          <mxGeometry x="260" y="100" width="80" height="80" as="geometry" />
        </mxCell>
        <mxCell id="dN7AVTIH89Ig2Ot_esda-5" value="" style="edgeStyle=orthogonalEdgeStyle;rounded=0;orthogonalLoop=1;jettySize=auto;html=1;" edge="1" parent="6tACQDfN3VSRMyzd7dVN-1" source="dN7AVTIH89Ig2Ot_esda-0" target="dN7AVTIH89Ig2Ot_esda-1">
          <mxGeometry relative="1" as="geometry" />
        </mxCell>
        <mxCell id="dN7AVTIH89Ig2Ot_esda-0" value="Process list of apps" style="shape=process;whiteSpace=wrap;html=1;backgroundOutline=1;rounded=1;strokeWidth=2;" vertex="1" parent="6tACQDfN3VSRMyzd7dVN-1">
          <mxGeometry x="215" y="390" width="120" height="60" as="geometry" />
        </mxCell>
        <mxCell id="dN7AVTIH89Ig2Ot_esda-6" value="" style="edgeStyle=orthogonalEdgeStyle;rounded=0;orthogonalLoop=1;jettySize=auto;html=1;" edge="1" parent="6tACQDfN3VSRMyzd7dVN-1" source="dN7AVTIH89Ig2Ot_esda-1">
          <mxGeometry relative="1" as="geometry">
            <mxPoint x="570" y="420" as="targetPoint" />
          </mxGeometry>
        </mxCell>
        <mxCell id="dN7AVTIH89Ig2Ot_esda-1" value="Any Missing" style="strokeWidth=2;html=1;shape=mxgraph.flowchart.decision;whiteSpace=wrap;rounded=1;" vertex="1" parent="6tACQDfN3VSRMyzd7dVN-1">
          <mxGeometry x="375" y="370" width="100" height="100" as="geometry" />
        </mxCell>
        <mxCell id="dN7AVTIH89Ig2Ot_esda-2" value="" style="verticalLabelPosition=bottom;verticalAlign=top;html=1;shape=offPageConnector;rounded=0;size=0.5;strokeWidth=2;" vertex="1" parent="6tACQDfN3VSRMyzd7dVN-1">
          <mxGeometry x="570" y="375" width="100" height="90" as="geometry" />
        </mxCell>
        <mxCell id="dN7AVTIH89Ig2Ot_esda-3" value="Create Application" style="text;html=1;align=center;verticalAlign=middle;resizable=0;points=[];autosize=1;strokeColor=none;fillColor=none;" vertex="1" parent="6tACQDfN3VSRMyzd7dVN-1">
          <mxGeometry x="565" y="400" width="110" height="20" as="geometry" />
        </mxCell>
      </root>
    </mxGraphModel>
  </diagram>
</mxfile>
